<svg width="2000px" height="1098px"
 viewBox="0.00 0.00 1656.21 908.94" xmlns="http://www.w3.org/2000/svg" xmlns:xlink="http://www.w3.org/1999/xlink">
<g id="graph0" class="graph" transform="scale(1.0 1.0) rotate(0) translate(4 904.94)">
<title>ContextMapGraph</title>
<polygon fill="white" stroke="transparent" points="-4,4 -4,-904.94 1652.21,-904.94 1652.21,4 -4,4"/>
<!-- EstadoVehiculo -->
<g id="node1" class="node">
<title>EstadoVehiculo</title>
<polygon fill="none" stroke="black" stroke-width="2" points="1207.36,-523.15 1200.62,-524.55 1193.76,-525.83 1186.82,-526.99 1179.82,-528.03 1172.79,-528.94 1165.75,-529.71 1158.73,-530.34 1151.76,-530.83 1144.86,-531.17 1138.05,-531.37 1131.36,-531.42 1124.8,-531.32 1118.4,-531.07 1112.17,-530.68 1106.14,-530.13 1100.32,-529.44 1094.71,-528.6 1089.35,-527.63 1084.22,-526.51 1079.36,-525.27 1074.75,-523.89 1070.42,-522.4 1066.36,-520.78 1062.58,-519.06 1059.08,-517.23 1055.86,-515.3 1052.93,-513.28 1050.28,-511.18 1047.91,-509.01 1045.82,-506.77 1044.01,-504.47 1042.47,-502.13 1041.19,-499.74 1040.18,-497.32 1039.42,-494.88 1038.92,-492.42 1038.67,-489.96 1038.66,-487.5 1038.88,-485.05 1039.34,-482.61 1040.02,-480.2 1040.93,-477.83 1042.05,-475.49 1043.39,-473.2 1044.94,-470.96 1046.7,-468.78 1048.66,-466.66 1050.82,-464.62 1053.18,-462.64 1055.74,-460.74 1058.49,-458.93 1061.44,-457.2 1064.58,-455.56 1067.91,-454.01 1071.43,-452.55 1075.13,-451.19 1079.03,-449.93 1083.11,-448.76 1087.37,-447.7 1091.81,-446.73 1096.43,-445.86 1101.22,-445.1 1106.17,-444.43 1111.29,-443.87 1116.57,-443.4 1121.99,-443.03 1127.55,-442.77 1133.25,-442.6 1139.06,-442.52 1144.99,-442.55 1151.01,-442.66 1157.11,-442.88 1163.29,-443.18 1169.51,-443.58 1175.77,-444.07 1182.05,-444.65 1188.32,-445.31 1194.57,-446.07 1200.78,-446.91 1206.93,-447.84 1212.99,-448.85 1218.94,-449.94 1224.75,-451.11 1230.42,-452.37 1235.9,-453.7 1241.18,-455.11 1246.24,-456.6 1251.05,-458.15 1255.59,-459.78 1259.85,-461.48 1263.79,-463.25 1267.39,-465.07 1270.66,-466.96 1273.55,-468.91 1276.06,-470.91 1278.18,-472.97 1279.89,-475.06 1281.18,-477.21 1282.04,-479.39 1282.46,-481.6 1282.45,-483.84 1282,-486.1 1281.1,-488.38 1279.76,-490.68 1277.99,-492.97 1275.78,-495.26 1273.15,-497.55 1270.1,-499.82 1266.65,-502.06 1262.82,-504.28 1258.61,-506.46 1254.05,-508.59 1249.15,-510.67 1243.94,-512.69 1238.43,-514.65 1232.66,-516.53 1226.64,-518.32 1220.4,-520.03 1213.96,-521.64 1207.36,-523.15"/>
<text text-anchor="middle" x="1151.21" y="-480.73" font-family="sans-serif" font-size="16.00">EstadoVehiculo</text>
</g>
<!-- GestionarAlquileresContext -->
<g id="node2" class="node">
<title>GestionarAlquileresContext</title>
<polygon fill="none" stroke="black" stroke-width="2" points="1314.95,-333.51 1316.92,-336.34 1318.35,-339.16 1319.26,-341.97 1319.62,-344.76 1319.45,-347.51 1318.72,-350.22 1317.45,-352.88 1315.63,-355.47 1313.27,-357.99 1310.37,-360.42 1306.93,-362.76 1302.97,-365.01 1298.5,-367.15 1293.52,-369.18 1288.05,-371.09 1282.1,-372.88 1275.7,-374.55 1268.86,-376.08 1261.61,-377.48 1253.95,-378.75 1245.93,-379.88 1237.55,-380.88 1228.86,-381.74 1219.87,-382.47 1210.61,-383.06 1201.12,-383.52 1191.42,-383.85 1181.54,-384.06 1171.52,-384.14 1161.38,-384.1 1151.16,-383.95 1140.89,-383.69 1130.6,-383.32 1120.33,-382.84 1110.1,-382.27 1099.95,-381.61 1089.91,-380.86 1080.01,-380.02 1070.27,-379.11 1060.73,-378.12 1051.42,-377.06 1042.36,-375.93 1033.57,-374.75 1025.09,-373.5 1016.93,-372.2 1009.12,-370.84 1001.67,-369.44 994.61,-367.99 987.96,-366.5 981.72,-364.96 975.93,-363.38 970.57,-361.77 965.68,-360.12 961.26,-358.43 957.32,-356.71 953.86,-354.96 950.89,-353.17 948.42,-351.36 946.45,-349.51 944.97,-347.64 943.99,-345.74 943.51,-343.81 943.53,-341.86 944.04,-339.89 945.03,-337.89 946.5,-335.88 948.45,-333.86 950.86,-331.82 953.72,-329.77 957.03,-327.72 960.78,-325.66 964.95,-323.61 969.53,-321.57 974.51,-319.54 979.87,-317.53 985.61,-315.55 991.7,-313.59 998.13,-311.68 1004.88,-309.8 1011.94,-307.98 1019.29,-306.22 1026.92,-304.52 1034.8,-302.9 1042.92,-301.36 1051.26,-299.91 1059.79,-298.55 1068.51,-297.3 1077.38,-296.16 1086.4,-295.13 1095.54,-294.23 1104.77,-293.47 1114.08,-292.83 1123.45,-292.35 1132.85,-292 1142.26,-291.81 1151.66,-291.78 1161.03,-291.9 1170.34,-292.18 1179.58,-292.62 1188.7,-293.23 1197.71,-294 1206.56,-294.93 1215.24,-296.02 1223.72,-297.26 1231.99,-298.66 1240.01,-300.21 1247.77,-301.91 1255.23,-303.74 1262.39,-305.71 1269.22,-307.8 1275.69,-310 1281.79,-312.32 1287.5,-314.73 1292.79,-317.23 1297.65,-319.81 1302.07,-322.46 1306.02,-325.16 1309.5,-327.92 1312.48,-330.7 1314.95,-333.51"/>
<text text-anchor="middle" x="1129.21" y="-336.07" font-family="sans-serif" font-size="16.00">GestionarAlquileresContext</text>
</g>
<!-- EstadoVehiculo&#45;&gt;GestionarAlquileresContext -->
<g id="edge1" class="edge">
<title>EstadoVehiculo&#45;&gt;GestionarAlquileresContext</title>
<path fill="none" stroke="black" stroke-width="2" d="M1144.85,-442.27C1142,-423.84 1138.66,-402.12 1135.79,-383.53"/>
<text text-anchor="middle" x="1215.71" y="-409.99" font-family="sans-serif" font-size="12.00"> &#160;&#160;&#160;&#160;&#160;&#160;&#160;&#160;&#160;&#160;&#160;&#160;&#160;&#160;&#160;&#160;&#160;&#160;&#160;&#160;&#160;&#160;&#160;&#160;&#160;&#160;&#160;&#160;&#160;&#160;&#160;&#160;&#160;&#160;&#160;&#160;&#160;&#160;&#160;</text>
<polygon fill="white" stroke="transparent" points="1128.79,-374.53 1128.79,-391.53 1142.79,-391.53 1142.79,-374.53 1128.79,-374.53"/>
<text text-anchor="start" x="1130.79" y="-379.93" font-family="sans-serif" font-size="12.00">D</text>
<polygon fill="white" stroke="transparent" points="1137.85,-433.27 1137.85,-450.27 1151.85,-450.27 1151.85,-433.27 1137.85,-433.27"/>
<text text-anchor="start" x="1139.85" y="-438.67" font-family="sans-serif" font-size="12.00">U</text>
</g>
<!-- GestionarClientesContext -->
<g id="node3" class="node">
<title>GestionarClientesContext</title>
<polygon fill="none" stroke="black" stroke-width="2" points="1272.99,-74.39 1266.39,-76.74 1259.44,-79.01 1252.15,-81.18 1244.57,-83.24 1236.71,-85.2 1228.61,-87.03 1220.29,-88.74 1211.77,-90.31 1203.1,-91.74 1194.29,-93.03 1185.38,-94.16 1176.38,-95.14 1167.34,-95.95 1158.26,-96.61 1149.18,-97.1 1140.13,-97.42 1131.12,-97.58 1122.17,-97.58 1113.31,-97.41 1104.56,-97.08 1095.94,-96.6 1087.46,-95.96 1079.15,-95.17 1071.02,-94.24 1063.08,-93.16 1055.35,-91.96 1047.84,-90.62 1040.56,-89.17 1033.54,-87.6 1026.77,-85.93 1020.27,-84.17 1014.05,-82.31 1008.11,-80.38 1002.48,-78.37 997.15,-76.3 992.13,-74.18 987.44,-72.01 983.07,-69.81 979.04,-67.57 975.35,-65.31 972.01,-63.04 969.03,-60.76 966.41,-58.48 964.16,-56.2 962.29,-53.94 960.8,-51.7 959.69,-49.48 958.98,-47.3 958.67,-45.14 958.76,-43.02 959.25,-40.95 960.16,-38.92 961.48,-36.94 963.22,-35.01 965.38,-33.13 967.96,-31.3 970.97,-29.54 974.39,-27.83 978.24,-26.18 982.5,-24.59 987.18,-23.06 992.27,-21.6 997.76,-20.19 1003.64,-18.85 1009.91,-17.58 1016.56,-16.37 1023.57,-15.23 1030.93,-14.15 1038.62,-13.14 1046.63,-12.2 1054.94,-11.32 1063.53,-10.52 1072.37,-9.8 1081.45,-9.14 1090.73,-8.56 1100.19,-8.06 1109.81,-7.64 1119.55,-7.3 1129.39,-7.05 1139.29,-6.88 1149.23,-6.8 1159.16,-6.82 1169.06,-6.93 1178.9,-7.13 1188.63,-7.44 1198.22,-7.85 1207.65,-8.36 1216.88,-8.97 1225.86,-9.7 1234.58,-10.53 1243,-11.47 1251.09,-12.53 1258.81,-13.69 1266.15,-14.97 1273.06,-16.36 1279.54,-17.86 1285.55,-19.46 1291.07,-21.18 1296.08,-22.99 1300.56,-24.91 1304.51,-26.92 1307.9,-29.03 1310.72,-31.22 1312.97,-33.49 1314.64,-35.84 1315.72,-38.26 1316.22,-40.73 1316.14,-43.26 1315.47,-45.84 1314.23,-48.45 1312.42,-51.09 1310.05,-53.74 1307.14,-56.41 1303.71,-59.07 1299.75,-61.71 1295.31,-64.34 1290.38,-66.93 1285.01,-69.47 1279.2,-71.96 1272.99,-74.39"/>
<text text-anchor="middle" x="1129.21" y="-45.06" font-family="sans-serif" font-size="16.00">GestionarClientesContext</text>
</g>
<!-- GestionarAlquileresContext&#45;&gt;GestionarClientesContext -->
<g id="edge2" class="edge">
<title>GestionarAlquileresContext&#45;&gt;GestionarClientesContext</title>
<path fill="none" stroke="black" stroke-width="2" d="M1129.21,-292.12C1129.21,-238.76 1129.21,-151.92 1129.21,-97.99"/>
<text text-anchor="middle" x="1171.21" y="-191.34" font-family="sans-serif" font-size="12.00">Shared Kernel</text>
</g>
<!-- GestionarVehiculosContext -->
<g id="node4" class="node">
<title>GestionarVehiculosContext</title>
<polygon fill="none" stroke="black" stroke-width="2" points="607.39,-228.61 597.81,-226.86 588.62,-225.03 579.84,-223.11 571.51,-221.13 563.68,-219.09 556.36,-216.99 549.6,-214.85 543.42,-212.66 537.85,-210.45 532.91,-208.2 528.61,-205.94 524.98,-203.67 522.02,-201.39 519.75,-199.12 518.18,-196.85 517.3,-194.6 517.11,-192.36 517.62,-190.15 518.81,-187.97 520.68,-185.83 523.2,-183.73 526.37,-181.67 530.16,-179.65 534.56,-177.69 539.53,-175.79 545.06,-173.94 551.11,-172.16 557.65,-170.44 564.66,-168.78 572.09,-167.2 579.91,-165.69 588.09,-164.25 596.6,-162.88 605.39,-161.6 614.42,-160.39 623.68,-159.26 633.11,-158.21 642.68,-157.25 652.35,-156.37 662.1,-155.58 671.9,-154.87 681.7,-154.26 691.48,-153.73 701.22,-153.29 710.88,-152.95 720.44,-152.7 729.87,-152.54 739.16,-152.48 748.29,-152.51 757.24,-152.65 765.98,-152.88 774.52,-153.21 782.82,-153.64 790.9,-154.17 798.72,-154.8 806.29,-155.53 813.59,-156.37 820.63,-157.3 827.39,-158.34 833.88,-159.47 840.08,-160.71 846,-162.04 851.63,-163.47 856.96,-165 862.01,-166.61 866.76,-168.32 871.21,-170.11 875.36,-171.98 879.21,-173.93 882.75,-175.96 885.98,-178.06 888.9,-180.22 891.49,-182.44 893.76,-184.72 895.7,-187.04 897.29,-189.4 898.54,-191.8 899.44,-194.23 899.97,-196.67 900.14,-199.12 899.92,-201.58 899.32,-204.03 898.31,-206.47 896.9,-208.89 895.08,-211.28 892.83,-213.63 890.16,-215.93 887.04,-218.17 883.49,-220.36 879.49,-222.47 875.04,-224.5 870.14,-226.44 864.78,-228.29 858.98,-230.03 852.73,-231.67 846.04,-233.19 838.92,-234.59 831.38,-235.86 823.43,-237 815.08,-238.01 806.35,-238.88 797.26,-239.61 787.84,-240.19 778.11,-240.63 768.09,-240.92 757.81,-241.06 747.31,-241.05 736.62,-240.9 725.76,-240.6 714.79,-240.15 703.74,-239.57 692.64,-238.85 681.54,-237.99 670.48,-237 659.51,-235.89 648.66,-234.65 637.98,-233.3 627.51,-231.84 617.3,-230.27 607.39,-228.61"/>
<text text-anchor="middle" x="723.21" y="-190.64" font-family="sans-serif" font-size="16.00">GestionarVehiculosContext</text>
</g>
<!-- GestionarAlquileresContext&#45;&gt;GestionarVehiculosContext -->
<g id="edge3" class="edge">
<title>GestionarAlquileresContext&#45;&gt;GestionarVehiculosContext</title>
<path fill="none" stroke="black" stroke-width="2" d="M1033.54,-303.04C996.64,-289.4 954.04,-273.84 915.21,-260.16 891.07,-251.65 865.15,-242.75 840.4,-234.37"/>
<text text-anchor="middle" x="993.21" y="-263.56" font-family="sans-serif" font-size="12.00">Shared Kernel</text>
</g>
<!-- GestionarVehiculosContext&#45;&gt;GestionarClientesContext -->
<g id="edge4" class="edge">
<title>GestionarVehiculosContext&#45;&gt;GestionarClientesContext</title>
<path fill="none" stroke="black" stroke-width="2" d="M824.09,-157.76C885.86,-135.92 964.68,-108.05 1026.73,-86.1"/>
<text text-anchor="middle" x="981.21" y="-119.12" font-family="sans-serif" font-size="12.00">Shared Kernel</text>
</g>
<!-- RastreoAuto -->
<g id="node5" class="node">
<title>RastreoAuto</title>
<polygon fill="none" stroke="black" stroke-width="2" points="866.43,-369.2 862.14,-371.38 857.66,-373.47 853.02,-375.45 848.23,-377.33 843.31,-379.08 838.29,-380.71 833.17,-382.2 827.97,-383.55 822.72,-384.76 817.43,-385.82 812.11,-386.72 806.79,-387.46 801.47,-388.04 796.18,-388.46 790.93,-388.72 785.72,-388.81 780.59,-388.73 775.53,-388.49 770.55,-388.1 765.68,-387.54 760.92,-386.83 756.28,-385.97 751.76,-384.96 747.38,-383.81 743.15,-382.53 739.06,-381.12 735.13,-379.59 731.37,-377.94 727.77,-376.19 724.34,-374.34 721.09,-372.4 718.01,-370.38 715.12,-368.29 712.41,-366.13 709.89,-363.92 707.56,-361.66 705.43,-359.37 703.49,-357.04 701.74,-354.7 700.2,-352.34 698.85,-349.98 697.72,-347.61 696.78,-345.26 696.05,-342.93 695.54,-340.61 695.23,-338.33 695.14,-336.08 695.26,-333.87 695.6,-331.7 696.16,-329.58 696.94,-327.51 697.94,-325.5 699.16,-323.55 700.61,-321.66 702.29,-319.84 704.19,-318.08 706.31,-316.39 708.66,-314.76 711.23,-313.21 714.03,-311.73 717.04,-310.32 720.27,-308.99 723.71,-307.73 727.37,-306.54 731.22,-305.42 735.27,-304.39 739.51,-303.42 743.94,-302.53 748.53,-301.72 753.29,-300.99 758.2,-300.33 763.25,-299.75 768.43,-299.25 773.72,-298.84 779.11,-298.5 784.59,-298.24 790.13,-298.07 795.73,-297.99 801.36,-297.99 807,-298.08 812.64,-298.26 818.26,-298.54 823.83,-298.9 829.35,-299.36 834.78,-299.92 840.11,-300.58 845.32,-301.34 850.4,-302.2 855.31,-303.16 860.04,-304.22 864.58,-305.38 868.9,-306.65 872.99,-308.02 876.84,-309.49 880.42,-311.06 883.72,-312.73 886.73,-314.5 889.45,-316.36 891.85,-318.31 893.92,-320.34 895.67,-322.46 897.08,-324.66 898.15,-326.93 898.88,-329.27 899.26,-331.66 899.29,-334.11 898.98,-336.61 898.33,-339.14 897.33,-341.7 896,-344.29 894.34,-346.88 892.37,-349.48 890.08,-352.07 887.5,-354.65 884.62,-357.2 881.48,-359.71 878.07,-362.17 874.42,-364.58 870.53,-366.93 866.43,-369.2"/>
<text text-anchor="middle" x="791.21" y="-336.07" font-family="sans-serif" font-size="16.00">RastreoAuto</text>
</g>
<!-- RastreoAuto&#45;&gt;GestionarVehiculosContext -->
<g id="edge5" class="edge">
<title>RastreoAuto&#45;&gt;GestionarVehiculosContext</title>
<path fill="none" stroke="black" stroke-width="2" d="M772.27,-298.92C763.78,-281.01 753.72,-259.8 744.93,-241.25"/>
<text text-anchor="middle" x="835.71" y="-263.56" font-family="sans-serif" font-size="12.00"> &#160;&#160;&#160;&#160;&#160;&#160;&#160;&#160;&#160;&#160;&#160;&#160;&#160;&#160;&#160;&#160;&#160;&#160;&#160;&#160;&#160;&#160;&#160;&#160;&#160;&#160;&#160;&#160;&#160;&#160;&#160;&#160;&#160;&#160;&#160;&#160;&#160;&#160;&#160;</text>
<polygon fill="white" stroke="transparent" points="737.93,-232.25 737.93,-249.25 751.93,-249.25 751.93,-232.25 737.93,-232.25"/>
<text text-anchor="start" x="739.93" y="-237.65" font-family="sans-serif" font-size="12.00">D</text>
<polygon fill="white" stroke="transparent" points="765.27,-289.92 765.27,-306.92 779.27,-306.92 779.27,-289.92 765.27,-289.92"/>
<text text-anchor="start" x="767.27" y="-295.32" font-family="sans-serif" font-size="12.00">U</text>
</g>
<!-- SeguridadContext -->
<g id="node6" class="node">
<title>SeguridadContext</title>
<polygon fill="none" stroke="black" stroke-width="2" points="97.79,-303.86 104.93,-302.16 112.25,-300.57 119.71,-299.09 127.29,-297.74 134.95,-296.51 142.66,-295.42 150.41,-294.47 158.16,-293.66 165.88,-293.01 173.56,-292.5 181.15,-292.14 188.65,-291.94 196.02,-291.9 203.26,-292.02 210.32,-292.29 217.21,-292.71 223.9,-293.29 230.38,-294.02 236.62,-294.9 242.63,-295.92 248.39,-297.08 253.88,-298.38 259.11,-299.81 264.06,-301.36 268.73,-303.03 273.11,-304.81 277.21,-306.69 281.01,-308.66 284.52,-310.73 287.75,-312.87 290.67,-315.08 293.31,-317.35 295.66,-319.68 297.72,-322.05 299.5,-324.45 301,-326.88 302.21,-329.33 303.15,-331.79 303.82,-334.25 304.21,-336.7 304.34,-339.13 304.21,-341.55 303.81,-343.93 303.15,-346.28 302.23,-348.59 301.05,-350.85 299.62,-353.05 297.93,-355.19 295.99,-357.27 293.79,-359.28 291.34,-361.22 288.64,-363.08 285.68,-364.86 282.48,-366.56 279.02,-368.17 275.31,-369.7 271.36,-371.14 267.16,-372.49 262.71,-373.75 258.02,-374.92 253.09,-376 247.93,-376.98 242.55,-377.87 236.93,-378.67 231.11,-379.37 225.08,-379.98 218.85,-380.51 212.43,-380.93 205.84,-381.27 199.09,-381.52 192.2,-381.67 185.17,-381.74 178.03,-381.71 170.8,-381.6 163.5,-381.4 156.14,-381.11 148.75,-380.73 141.35,-380.26 133.97,-379.7 126.63,-379.05 119.35,-378.32 112.17,-377.5 105.11,-376.59 98.2,-375.6 91.46,-374.52 84.92,-373.35 78.6,-372.1 72.54,-370.76 66.76,-369.34 61.29,-367.84 56.14,-366.25 51.34,-364.59 46.92,-362.85 42.9,-361.04 39.29,-359.16 36.1,-357.2 33.37,-355.18 31.1,-353.1 29.3,-350.96 27.98,-348.77 27.15,-346.54 26.81,-344.25 26.98,-341.94 27.64,-339.59 28.79,-337.21 30.44,-334.82 32.58,-332.42 35.19,-330.02 38.26,-327.62 41.79,-325.23 45.76,-322.86 50.15,-320.53 54.94,-318.22 60.11,-315.97 65.63,-313.77 71.5,-311.63 77.67,-309.56 84.13,-307.57 90.84,-305.67 97.79,-303.86"/>
<text text-anchor="middle" x="176.21" y="-336.07" font-family="sans-serif" font-size="16.00">SeguridadContext</text>
</g>
<!-- SeguridadContext&#45;&gt;GestionarVehiculosContext -->
<g id="edge7" class="edge">
<title>SeguridadContext&#45;&gt;GestionarVehiculosContext</title>
<path fill="none" stroke="black" stroke-width="2" d="M267.66,-302.53C306.55,-287.99 352.67,-271.93 395.21,-260.16 451.57,-244.56 514.37,-231.22 569.81,-220.77"/>
<text text-anchor="middle" x="437.21" y="-263.56" font-family="sans-serif" font-size="12.00">Shared Kernel</text>
</g>
<!-- validarpago -->
<g id="node7" class="node">
<title>validarpago</title>
<polygon fill="none" stroke="black" stroke-width="2" points="76.6,-196.25 76.24,-193.37 76.15,-190.51 76.34,-187.67 76.81,-184.86 77.56,-182.1 78.59,-179.4 79.89,-176.77 81.47,-174.21 83.32,-171.74 85.43,-169.37 87.8,-167.1 90.43,-164.95 93.3,-162.91 96.42,-161 99.76,-159.21 103.33,-157.56 107.1,-156.05 111.08,-154.68 115.25,-153.45 119.59,-152.37 124.1,-151.43 128.76,-150.64 133.56,-149.99 138.48,-149.48 143.51,-149.11 148.63,-148.88 153.83,-148.79 159.1,-148.82 164.41,-148.99 169.76,-149.27 175.12,-149.68 180.48,-150.19 185.82,-150.82 191.14,-151.55 196.4,-152.37 201.6,-153.28 206.73,-154.29 211.76,-155.37 216.68,-156.52 221.48,-157.75 226.15,-159.04 230.67,-160.39 235.03,-161.8 239.21,-163.26 243.21,-164.77 247.01,-166.32 250.61,-167.91 253.99,-169.54 257.15,-171.2 260.08,-172.89 262.76,-174.62 265.21,-176.37 267.4,-178.14 269.33,-179.95 271,-181.77 272.41,-183.61 273.55,-185.48 274.42,-187.36 275.03,-189.26 275.36,-191.18 275.42,-193.11 275.22,-195.05 274.75,-197.01 274.01,-198.97 273.01,-200.95 271.75,-202.93 270.24,-204.92 268.48,-206.9 266.48,-208.89 264.25,-210.86 261.78,-212.83 259.09,-214.79 256.18,-216.72 253.07,-218.63 249.76,-220.52 246.26,-222.37 242.57,-224.18 238.72,-225.95 234.71,-227.66 230.55,-229.31 226.24,-230.9 221.81,-232.41 217.26,-233.85 212.61,-235.2 207.86,-236.45 203.03,-237.6 198.13,-238.64 193.17,-239.57 188.16,-240.37 183.12,-241.05 178.06,-241.6 173,-242 167.93,-242.26 162.89,-242.37 157.87,-242.33 152.9,-242.14 147.98,-241.79 143.13,-241.27 138.36,-240.6 133.68,-239.77 129.11,-238.78 124.65,-237.63 120.33,-236.32 116.15,-234.86 112.11,-233.25 108.25,-231.5 104.55,-229.61 101.05,-227.59 97.73,-225.44 94.63,-223.18 91.73,-220.81 89.06,-218.34 86.63,-215.77 84.43,-213.14 82.47,-210.43 80.77,-207.66 79.33,-204.85 78.15,-202 77.24,-199.13 76.6,-196.25"/>
<text text-anchor="middle" x="176.21" y="-190.64" font-family="sans-serif" font-size="16.00">validarpago</text>
</g>
<!-- SeguridadContext&#45;&gt;validarpago -->
<g id="edge6" class="edge">
<title>SeguridadContext&#45;&gt;validarpago</title>
<path fill="none" stroke="black" stroke-width="2" d="M176.21,-292.3C176.21,-276.11 176.21,-257.95 176.21,-241.77"/>
<text text-anchor="middle" x="251.71" y="-263.56" font-family="sans-serif" font-size="12.00"> &#160;&#160;&#160;&#160;&#160;&#160;&#160;&#160;&#160;&#160;&#160;&#160;&#160;&#160;&#160;&#160;&#160;&#160;&#160;&#160;&#160;&#160;&#160;&#160;&#160;&#160;&#160;&#160;&#160;&#160;&#160;&#160;&#160;&#160;&#160;&#160;&#160;&#160;&#160;</text>
<polygon fill="white" stroke="transparent" points="169.21,-232.77 169.21,-249.77 183.21,-249.77 183.21,-232.77 169.21,-232.77"/>
<text text-anchor="start" x="171.21" y="-238.17" font-family="sans-serif" font-size="12.00">D</text>
<polygon fill="white" stroke="transparent" points="169.21,-283.3 169.21,-300.3 183.21,-300.3 183.21,-283.3 169.21,-283.3"/>
<text text-anchor="start" x="171.21" y="-288.7" font-family="sans-serif" font-size="12.00">U</text>
</g>
<!-- gestionarPagosContext -->
<g id="node8" class="node">
<title>gestionarPagosContext</title>
<polygon fill="none" stroke="black" stroke-width="2" points="296.76,-78.73 289.62,-80.87 282.2,-82.92 274.51,-84.87 266.6,-86.71 258.48,-88.42 250.19,-90.01 241.76,-91.46 233.22,-92.77 224.59,-93.94 215.91,-94.95 207.2,-95.81 198.49,-96.51 189.79,-97.05 181.15,-97.43 172.58,-97.65 164.11,-97.7 155.75,-97.58 147.53,-97.31 139.46,-96.87 131.56,-96.28 123.86,-95.53 116.36,-94.64 109.07,-93.6 102.02,-92.42 95.21,-91.1 88.65,-89.66 82.36,-88.1 76.33,-86.43 70.58,-84.65 65.12,-82.78 59.95,-80.82 55.08,-78.78 50.51,-76.66 46.24,-74.49 42.28,-72.26 38.64,-69.99 35.31,-67.68 32.3,-65.34 29.61,-62.99 27.25,-60.62 25.22,-58.25 23.52,-55.88 22.15,-53.52 21.12,-51.18 20.42,-48.87 20.07,-46.58 20.07,-44.34 20.41,-42.13 21.11,-39.97 22.15,-37.86 23.56,-35.8 25.32,-33.8 27.44,-31.86 29.92,-29.98 32.76,-28.17 35.96,-26.43 39.53,-24.75 43.46,-23.15 47.75,-21.62 52.39,-20.16 57.39,-18.78 62.73,-17.47 68.42,-16.24 74.44,-15.08 80.79,-13.99 87.45,-12.99 94.42,-12.06 101.68,-11.21 109.21,-10.43 117,-9.73 125.04,-9.11 133.3,-8.58 141.76,-8.12 150.4,-7.74 159.2,-7.44 168.13,-7.23 177.17,-7.1 186.28,-7.06 195.44,-7.1 204.62,-7.24 213.79,-7.46 222.92,-7.78 231.97,-8.19 240.92,-8.69 249.72,-9.29 258.36,-9.99 266.8,-10.79 275,-11.68 282.93,-12.68 290.57,-13.78 297.88,-14.97 304.83,-16.27 311.4,-17.67 317.56,-19.17 323.29,-20.77 328.56,-22.46 333.35,-24.25 337.64,-26.12 341.42,-28.09 344.67,-30.14 347.38,-32.27 349.54,-34.48 351.14,-36.75 352.17,-39.09 352.63,-41.49 352.53,-43.93 351.85,-46.42 350.62,-48.95 348.83,-51.5 346.5,-54.07 343.64,-56.65 340.25,-59.23 336.36,-61.8 331.99,-64.35 327.15,-66.88 321.86,-69.36 316.16,-71.8 310.05,-74.18 303.58,-76.49 296.76,-78.73"/>
<text text-anchor="middle" x="176.21" y="-45.06" font-family="sans-serif" font-size="16.00">gestionarPagosContext</text>
</g>
<!-- validarpago&#45;&gt;gestionarPagosContext -->
<g id="edge8" class="edge">
<title>validarpago&#45;&gt;gestionarPagosContext</title>
<path fill="none" stroke="black" stroke-width="2" d="M176.21,-149.58C176.21,-133.17 176.21,-114.45 176.21,-97.7"/>
<text text-anchor="middle" x="251.71" y="-119.12" font-family="sans-serif" font-size="12.00"> &#160;&#160;&#160;&#160;&#160;&#160;&#160;&#160;&#160;&#160;&#160;&#160;&#160;&#160;&#160;&#160;&#160;&#160;&#160;&#160;&#160;&#160;&#160;&#160;&#160;&#160;&#160;&#160;&#160;&#160;&#160;&#160;&#160;&#160;&#160;&#160;&#160;&#160;&#160;</text>
<polygon fill="white" stroke="transparent" points="169.21,-88.7 169.21,-105.7 183.21,-105.7 183.21,-88.7 169.21,-88.7"/>
<text text-anchor="start" x="171.21" y="-94.1" font-family="sans-serif" font-size="12.00">D</text>
<polygon fill="white" stroke="transparent" points="169.21,-140.58 169.21,-157.58 183.21,-157.58 183.21,-140.58 169.21,-140.58"/>
<text text-anchor="start" x="171.21" y="-145.98" font-family="sans-serif" font-size="12.00">U</text>
</g>
<!-- caracteristicasAuto -->
<g id="node9" class="node">
<title>caracteristicasAuto</title>
<polygon fill="none" stroke="black" stroke-width="2" points="620.93,-351.7 618.58,-354.47 615.87,-357.19 612.8,-359.85 609.4,-362.44 605.67,-364.95 601.62,-367.36 597.27,-369.68 592.63,-371.88 587.71,-373.96 582.53,-375.91 577.1,-377.73 571.44,-379.42 565.57,-380.95 559.49,-382.34 553.24,-383.57 546.82,-384.64 540.25,-385.56 533.55,-386.31 526.73,-386.91 519.82,-387.34 512.83,-387.62 505.79,-387.73 498.69,-387.7 491.58,-387.51 484.45,-387.17 477.34,-386.69 470.25,-386.07 463.2,-385.32 456.22,-384.44 449.32,-383.45 442.51,-382.34 435.81,-381.12 429.24,-379.8 422.81,-378.39 416.55,-376.9 410.46,-375.32 404.55,-373.68 398.86,-371.98 393.38,-370.21 388.13,-368.4 383.13,-366.54 378.39,-364.65 373.92,-362.73 369.74,-360.78 365.85,-358.81 362.26,-356.83 359,-354.84 356.06,-352.84 353.45,-350.84 351.19,-348.84 349.27,-346.84 347.72,-344.85 346.53,-342.88 345.71,-340.91 345.26,-338.96 345.18,-337.03 345.49,-335.11 346.17,-333.21 347.24,-331.33 348.68,-329.47 350.5,-327.64 352.7,-325.83 355.26,-324.04 358.19,-322.28 361.49,-320.55 365.13,-318.85 369.12,-317.18 373.44,-315.54 378.09,-313.94 383.05,-312.37 388.31,-310.85 393.86,-309.37 399.68,-307.93 405.75,-306.55 412.06,-305.21 418.6,-303.94 425.33,-302.73 432.25,-301.58 439.34,-300.51 446.57,-299.51 453.92,-298.6 461.37,-297.77 468.9,-297.03 476.49,-296.39 484.11,-295.85 491.74,-295.42 499.36,-295.1 506.95,-294.9 514.47,-294.82 521.91,-294.87 529.25,-295.04 536.47,-295.35 543.53,-295.79 550.43,-296.37 557.14,-297.09 563.63,-297.95 569.9,-298.95 575.91,-300.09 581.66,-301.38 587.13,-302.8 592.3,-304.36 597.15,-306.05 601.67,-307.88 605.86,-309.82 609.69,-311.89 613.16,-314.07 616.26,-316.36 618.98,-318.75 621.32,-321.23 623.26,-323.8 624.81,-326.43 625.96,-329.13 626.71,-331.88 627.07,-334.68 627.02,-337.5 626.58,-340.35 625.74,-343.2 624.52,-346.06 622.91,-348.89 620.93,-351.7"/>
<text text-anchor="middle" x="485.21" y="-336.07" font-family="sans-serif" font-size="16.00">caracteristicasAuto</text>
</g>
<!-- caracteristicasAuto&#45;&gt;GestionarVehiculosContext -->
<g id="edge9" class="edge">
<title>caracteristicasAuto&#45;&gt;GestionarVehiculosContext</title>
<path fill="none" stroke="black" stroke-width="2" d="M478.94,-296.21C479.27,-283.42 482.1,-270.15 490.21,-260.16 502.58,-244.91 536.99,-232.17 575.7,-222.14"/>
<text text-anchor="middle" x="565.71" y="-263.56" font-family="sans-serif" font-size="12.00"> &#160;&#160;&#160;&#160;&#160;&#160;&#160;&#160;&#160;&#160;&#160;&#160;&#160;&#160;&#160;&#160;&#160;&#160;&#160;&#160;&#160;&#160;&#160;&#160;&#160;&#160;&#160;&#160;&#160;&#160;&#160;&#160;&#160;&#160;&#160;&#160;&#160;&#160;&#160;</text>
<polygon fill="white" stroke="transparent" points="568.7,-213.14 568.7,-230.14 582.7,-230.14 582.7,-213.14 568.7,-213.14"/>
<text text-anchor="start" x="570.7" y="-218.54" font-family="sans-serif" font-size="12.00">D</text>
<polygon fill="white" stroke="transparent" points="471.94,-287.21 471.94,-304.21 485.94,-304.21 485.94,-287.21 471.94,-287.21"/>
<text text-anchor="start" x="473.94" y="-292.61" font-family="sans-serif" font-size="12.00">U</text>
</g>
<!-- contratoAlquiler -->
<g id="node10" class="node">
<title>contratoAlquiler</title>
<polygon fill="none" stroke="black" stroke-width="2" points="1045.09,-735.43 1040.23,-733.15 1035.67,-730.81 1031.44,-728.43 1027.54,-726 1024.01,-723.55 1020.85,-721.07 1018.07,-718.59 1015.7,-716.1 1013.75,-713.61 1012.21,-711.14 1011.1,-708.69 1010.43,-706.27 1010.19,-703.89 1010.39,-701.55 1011.04,-699.27 1012.11,-697.03 1013.62,-694.86 1015.55,-692.76 1017.9,-690.72 1020.66,-688.76 1023.81,-686.88 1027.34,-685.09 1031.24,-683.37 1035.48,-681.75 1040.06,-680.21 1044.94,-678.76 1050.12,-677.41 1055.57,-676.14 1061.26,-674.97 1067.17,-673.89 1073.29,-672.91 1079.58,-672.02 1086.03,-671.22 1092.6,-670.51 1099.27,-669.9 1106.02,-669.37 1112.83,-668.93 1119.66,-668.59 1126.51,-668.33 1133.33,-668.16 1140.12,-668.08 1146.86,-668.08 1153.51,-668.17 1160.07,-668.34 1166.51,-668.6 1172.82,-668.94 1178.98,-669.36 1184.98,-669.87 1190.81,-670.46 1196.45,-671.14 1201.88,-671.9 1207.11,-672.74 1212.13,-673.66 1216.91,-674.67 1221.47,-675.76 1225.79,-676.93 1229.86,-678.18 1233.69,-679.51 1237.27,-680.93 1240.6,-682.42 1243.68,-684 1246.5,-685.65 1249.06,-687.37 1251.38,-689.17 1253.44,-691.04 1255.24,-692.98 1256.79,-694.98 1258.09,-697.05 1259.13,-699.17 1259.92,-701.35 1260.47,-703.58 1260.76,-705.84 1260.81,-708.15 1260.6,-710.49 1260.15,-712.85 1259.46,-715.24 1258.51,-717.63 1257.32,-720.03 1255.89,-722.42 1254.2,-724.81 1252.28,-727.17 1250.1,-729.5 1247.68,-731.8 1245.02,-734.05 1242.11,-736.25 1238.96,-738.38 1235.57,-740.44 1231.94,-742.43 1228.07,-744.32 1223.97,-746.11 1219.64,-747.8 1215.09,-749.38 1210.31,-750.84 1205.32,-752.17 1200.13,-753.37 1194.73,-754.43 1189.15,-755.35 1183.39,-756.12 1177.46,-756.74 1171.37,-757.2 1165.15,-757.51 1158.79,-757.66 1152.33,-757.65 1145.77,-757.47 1139.14,-757.14 1132.45,-756.65 1125.72,-756 1118.98,-755.2 1112.24,-754.25 1105.53,-753.15 1098.87,-751.91 1092.28,-750.53 1085.8,-749.02 1079.43,-747.39 1073.2,-745.64 1067.15,-743.79 1061.29,-741.83 1055.64,-739.78 1050.24,-737.64 1045.09,-735.43"/>
<text text-anchor="middle" x="1144.21" y="-705.66" font-family="sans-serif" font-size="16.00">contratoAlquiler</text>
</g>
<!-- contratoAlquiler&#45;&gt;GestionarAlquileresContext -->
<g id="edge11" class="edge">
<title>contratoAlquiler&#45;&gt;GestionarAlquileresContext</title>
<path fill="none" stroke="black" stroke-width="2" d="M1200.7,-671.7C1211.59,-663.11 1222.35,-653.43 1231.21,-643.12 1302.19,-560.52 1356.43,-496.66 1295.21,-406.59 1287.2,-394.8 1276.7,-385.12 1264.88,-377.18"/>
<text text-anchor="middle" x="1396.71" y="-481.43" font-family="sans-serif" font-size="12.00"> &#160;&#160;&#160;&#160;&#160;&#160;&#160;&#160;&#160;&#160;&#160;&#160;&#160;&#160;&#160;&#160;&#160;&#160;&#160;&#160;&#160;&#160;&#160;&#160;&#160;&#160;&#160;&#160;&#160;&#160;&#160;&#160;&#160;&#160;&#160;&#160;&#160;&#160;&#160;</text>
<polygon fill="white" stroke="transparent" points="1257.88,-368.18 1257.88,-385.18 1271.88,-385.18 1271.88,-368.18 1257.88,-368.18"/>
<text text-anchor="start" x="1259.88" y="-373.58" font-family="sans-serif" font-size="12.00">D</text>
<polygon fill="white" stroke="transparent" points="1193.7,-662.7 1193.7,-679.7 1207.7,-679.7 1207.7,-662.7 1193.7,-662.7"/>
<text text-anchor="start" x="1195.7" y="-668.1" font-family="sans-serif" font-size="12.00">U</text>
</g>
<!-- reservas -->
<g id="node11" class="node">
<title>reservas</title>
<polygon fill="none" stroke="black" stroke-width="2" points="939.76,-525.81 934.85,-526.8 929.89,-527.67 924.92,-528.41 919.93,-529.03 914.97,-529.51 910.04,-529.86 905.16,-530.08 900.36,-530.16 895.64,-530.1 891.03,-529.9 886.53,-529.56 882.18,-529.08 877.96,-528.47 873.91,-527.72 870.03,-526.83 866.33,-525.81 862.82,-524.66 859.51,-523.39 856.4,-522 853.5,-520.49 850.81,-518.87 848.33,-517.14 846.08,-515.32 844.04,-513.4 842.22,-511.4 840.62,-509.31 839.23,-507.16 838.06,-504.94 837.1,-502.66 836.34,-500.33 835.78,-497.97 835.42,-495.57 835.25,-493.14 835.26,-490.7 835.45,-488.25 835.82,-485.8 836.35,-483.36 837.05,-480.94 837.9,-478.54 838.9,-476.17 840.04,-473.83 841.33,-471.54 842.75,-469.31 844.3,-467.13 845.97,-465.01 847.77,-462.97 849.69,-461 851.72,-459.11 853.86,-457.3 856.11,-455.58 858.47,-453.95 860.94,-452.42 863.51,-450.98 866.18,-449.65 868.95,-448.42 871.82,-447.3 874.79,-446.28 877.85,-445.36 881.01,-444.56 884.26,-443.86 887.59,-443.28 891.02,-442.8 894.52,-442.43 898.11,-442.17 901.77,-442.02 905.51,-441.97 909.31,-442.03 913.17,-442.19 917.08,-442.46 921.04,-442.82 925.03,-443.29 929.06,-443.85 933.1,-444.51 937.15,-445.26 941.2,-446.1 945.24,-447.04 949.24,-448.06 953.21,-449.16 957.13,-450.35 960.97,-451.62 964.74,-452.96 968.41,-454.39 971.97,-455.88 975.4,-457.44 978.69,-459.07 981.82,-460.77 984.78,-462.52 987.55,-464.33 990.13,-466.2 992.49,-468.12 994.62,-470.09 996.51,-472.1 998.16,-474.15 999.54,-476.23 1000.65,-478.35 1001.48,-480.49 1002.02,-482.66 1002.27,-484.84 1002.23,-487.04 1001.88,-489.24 1001.23,-491.45 1000.28,-493.65 999.03,-495.85 997.48,-498.02 995.64,-500.18 993.5,-502.31 991.09,-504.41 988.4,-506.47 985.46,-508.48 982.26,-510.44 978.82,-512.34 975.16,-514.18 971.29,-515.95 967.22,-517.64 962.98,-519.24 958.58,-520.76 954.04,-522.18 949.37,-523.5 944.61,-524.71 939.76,-525.81"/>
<text text-anchor="middle" x="913.21" y="-480.73" font-family="sans-serif" font-size="16.00">reservas</text>
</g>
<!-- contratoAlquiler&#45;&gt;reservas -->
<g id="edge10" class="edge">
<title>contratoAlquiler&#45;&gt;reservas</title>
<path fill="none" stroke="black" stroke-width="2" d="M1103.71,-669.38C1061.01,-628.17 994.21,-563.71 952.12,-523.09"/>
<text text-anchor="middle" x="1151.71" y="-593.2" font-family="sans-serif" font-size="12.00"> &#160;&#160;&#160;&#160;&#160;&#160;&#160;&#160;&#160;&#160;&#160;&#160;&#160;&#160;&#160;&#160;&#160;&#160;&#160;&#160;&#160;&#160;&#160;&#160;&#160;&#160;&#160;&#160;&#160;&#160;&#160;&#160;&#160;&#160;&#160;&#160;&#160;&#160;&#160;</text>
<polygon fill="white" stroke="transparent" points="945.12,-514.09 945.12,-531.09 959.12,-531.09 959.12,-514.09 945.12,-514.09"/>
<text text-anchor="start" x="947.12" y="-519.49" font-family="sans-serif" font-size="12.00">D</text>
<polygon fill="white" stroke="transparent" points="1096.71,-660.38 1096.71,-677.38 1110.71,-677.38 1110.71,-660.38 1096.71,-660.38"/>
<text text-anchor="start" x="1098.71" y="-665.78" font-family="sans-serif" font-size="12.00">U</text>
</g>
<!-- reservas&#45;&gt;GestionarAlquileresContext -->
<g id="edge12" class="edge">
<title>reservas&#45;&gt;GestionarAlquileresContext</title>
<path fill="none" stroke="black" stroke-width="2" d="M942.37,-446.07C954.29,-432.43 968.89,-417.66 984.21,-406.59 1000.57,-394.77 1019.38,-384.35 1037.93,-375.49"/>
<text text-anchor="middle" x="1059.71" y="-409.99" font-family="sans-serif" font-size="12.00"> &#160;&#160;&#160;&#160;&#160;&#160;&#160;&#160;&#160;&#160;&#160;&#160;&#160;&#160;&#160;&#160;&#160;&#160;&#160;&#160;&#160;&#160;&#160;&#160;&#160;&#160;&#160;&#160;&#160;&#160;&#160;&#160;&#160;&#160;&#160;&#160;&#160;&#160;&#160;</text>
<polygon fill="white" stroke="transparent" points="1030.93,-366.49 1030.93,-383.49 1044.93,-383.49 1044.93,-366.49 1030.93,-366.49"/>
<text text-anchor="start" x="1032.93" y="-371.89" font-family="sans-serif" font-size="12.00">D</text>
<polygon fill="white" stroke="transparent" points="935.37,-437.07 935.37,-454.07 949.37,-454.07 949.37,-437.07 935.37,-437.07"/>
<text text-anchor="start" x="937.37" y="-442.47" font-family="sans-serif" font-size="12.00">U</text>
</g>
<!-- disponibilidadAuto -->
<g id="node12" class="node">
<title>disponibilidadAuto</title>
<polygon fill="none" stroke="black" stroke-width="2" points="1054.31,-887.26 1047.38,-885.42 1040.74,-883.5 1034.42,-881.51 1028.45,-879.45 1022.85,-877.33 1017.64,-875.16 1012.85,-872.95 1008.49,-870.7 1004.59,-868.43 1001.16,-866.13 998.22,-863.83 995.76,-861.51 993.82,-859.2 992.38,-856.9 991.46,-854.6 991.05,-852.33 991.16,-850.09 991.78,-847.87 992.91,-845.69 994.53,-843.55 996.64,-841.46 999.22,-839.41 1002.26,-837.42 1005.75,-835.49 1009.66,-833.62 1013.97,-831.81 1018.67,-830.06 1023.72,-828.39 1029.11,-826.79 1034.82,-825.26 1040.8,-823.8 1047.04,-822.42 1053.52,-821.12 1060.2,-819.9 1067.05,-818.76 1074.06,-817.7 1081.19,-816.73 1088.41,-815.84 1095.7,-815.04 1103.04,-814.32 1110.4,-813.69 1117.76,-813.16 1125.1,-812.71 1132.38,-812.35 1139.6,-812.08 1146.74,-811.91 1153.78,-811.83 1160.69,-811.84 1167.48,-811.95 1174.12,-812.16 1180.6,-812.47 1186.91,-812.87 1193.04,-813.37 1198.98,-813.97 1204.73,-814.67 1210.28,-815.47 1215.62,-816.37 1220.75,-817.37 1225.67,-818.46 1230.36,-819.66 1234.84,-820.95 1239.1,-822.34 1243.12,-823.82 1246.93,-825.4 1250.5,-827.06 1253.85,-828.82 1256.96,-830.65 1259.84,-832.57 1262.49,-834.56 1264.9,-836.63 1267.07,-838.76 1269,-840.96 1270.69,-843.22 1272.12,-845.52 1273.31,-847.87 1274.23,-850.26 1274.9,-852.68 1275.3,-855.12 1275.43,-857.58 1275.28,-860.05 1274.85,-862.52 1274.13,-864.98 1273.11,-867.42 1271.8,-869.84 1270.18,-872.22 1268.25,-874.56 1266.01,-876.85 1263.44,-879.09 1260.56,-881.25 1257.35,-883.34 1253.82,-885.34 1249.96,-887.25 1245.77,-889.06 1241.27,-890.77 1236.44,-892.36 1231.3,-893.83 1225.85,-895.18 1220.1,-896.4 1214.06,-897.48 1207.74,-898.42 1201.15,-899.22 1194.31,-899.88 1187.24,-900.39 1179.95,-900.75 1172.47,-900.95 1164.81,-901.01 1157,-900.92 1149.07,-900.67 1141.03,-900.28 1132.92,-899.75 1124.76,-899.07 1116.59,-898.25 1108.43,-897.3 1100.31,-896.21 1092.27,-895 1084.34,-893.67 1076.55,-892.22 1068.92,-890.67 1061.5,-889.01 1054.31,-887.26"/>
<text text-anchor="middle" x="1144.21" y="-850.08" font-family="sans-serif" font-size="16.00">disponibilidadAuto</text>
</g>
<!-- disponibilidadAuto&#45;&gt;GestionarVehiculosContext -->
<g id="edge13" class="edge">
<title>disponibilidadAuto&#45;&gt;GestionarVehiculosContext</title>
<path fill="none" stroke="black" stroke-width="2" d="M999.81,-838.97C855.59,-820.97 655.21,-782.92 655.21,-710.46 655.21,-710.46 655.21,-710.46 655.21,-338.87 655.21,-302.77 673.02,-266.06 690.41,-238.81"/>
<text text-anchor="middle" x="730.71" y="-481.43" font-family="sans-serif" font-size="12.00"> &#160;&#160;&#160;&#160;&#160;&#160;&#160;&#160;&#160;&#160;&#160;&#160;&#160;&#160;&#160;&#160;&#160;&#160;&#160;&#160;&#160;&#160;&#160;&#160;&#160;&#160;&#160;&#160;&#160;&#160;&#160;&#160;&#160;&#160;&#160;&#160;&#160;&#160;&#160;</text>
<polygon fill="white" stroke="transparent" points="683.41,-229.81 683.41,-246.81 697.41,-246.81 697.41,-229.81 683.41,-229.81"/>
<text text-anchor="start" x="685.41" y="-235.21" font-family="sans-serif" font-size="12.00">D</text>
<polygon fill="white" stroke="transparent" points="992.81,-829.97 992.81,-846.97 1006.81,-846.97 1006.81,-829.97 992.81,-829.97"/>
<text text-anchor="start" x="994.81" y="-835.37" font-family="sans-serif" font-size="12.00">U</text>
</g>
<!-- disponibilidadAuto&#45;&gt;contratoAlquiler -->
<g id="edge15" class="edge">
<title>disponibilidadAuto&#45;&gt;contratoAlquiler</title>
<path fill="none" stroke="black" stroke-width="2" d="M1144.21,-811.69C1144.21,-794.76 1144.21,-775.07 1144.21,-757.58"/>
<text text-anchor="middle" x="1219.71" y="-779.21" font-family="sans-serif" font-size="12.00"> &#160;&#160;&#160;&#160;&#160;&#160;&#160;&#160;&#160;&#160;&#160;&#160;&#160;&#160;&#160;&#160;&#160;&#160;&#160;&#160;&#160;&#160;&#160;&#160;&#160;&#160;&#160;&#160;&#160;&#160;&#160;&#160;&#160;&#160;&#160;&#160;&#160;&#160;&#160;</text>
<polygon fill="white" stroke="transparent" points="1137.21,-748.58 1137.21,-765.58 1151.21,-765.58 1151.21,-748.58 1137.21,-748.58"/>
<text text-anchor="start" x="1139.21" y="-753.98" font-family="sans-serif" font-size="12.00">D</text>
<polygon fill="white" stroke="transparent" points="1137.21,-802.69 1137.21,-819.69 1151.21,-819.69 1151.21,-802.69 1137.21,-802.69"/>
<text text-anchor="start" x="1139.21" y="-808.09" font-family="sans-serif" font-size="12.00">U</text>
</g>
<!-- usuarioCliente -->
<g id="node13" class="node">
<title>usuarioCliente</title>
<polygon fill="none" stroke="black" stroke-width="2" points="1585.42,-601.36 1584.67,-604.21 1583.61,-607.02 1582.25,-609.79 1580.58,-612.5 1578.62,-615.16 1576.37,-617.73 1573.83,-620.22 1571.02,-622.61 1567.93,-624.9 1564.59,-627.08 1560.99,-629.14 1557.16,-631.07 1553.09,-632.87 1548.8,-634.53 1544.31,-636.05 1539.61,-637.42 1534.74,-638.64 1529.69,-639.71 1524.49,-640.63 1519.15,-641.39 1513.68,-642 1508.1,-642.46 1502.42,-642.76 1496.65,-642.92 1490.83,-642.94 1484.95,-642.81 1479.04,-642.55 1473.1,-642.15 1467.17,-641.62 1461.25,-640.98 1455.36,-640.21 1449.52,-639.34 1443.73,-638.36 1438.03,-637.28 1432.42,-636.11 1426.91,-634.86 1421.53,-633.53 1416.28,-632.12 1411.19,-630.65 1406.26,-629.12 1401.52,-627.54 1396.96,-625.9 1392.61,-624.22 1388.48,-622.51 1384.57,-620.76 1380.9,-618.98 1377.48,-617.17 1374.32,-615.35 1371.42,-613.5 1368.8,-611.64 1366.47,-609.77 1364.42,-607.88 1362.66,-605.99 1361.21,-604.1 1360.05,-602.2 1359.21,-600.29 1358.67,-598.39 1358.45,-596.49 1358.53,-594.58 1358.93,-592.68 1359.64,-590.79 1360.66,-588.9 1361.98,-587.01 1363.61,-585.14 1365.54,-583.27 1367.76,-581.42 1370.26,-579.58 1373.05,-577.75 1376.11,-575.95 1379.44,-574.16 1383.02,-572.41 1386.85,-570.68 1390.91,-568.98 1395.2,-567.32 1399.7,-565.7 1404.4,-564.13 1409.29,-562.61 1414.35,-561.14 1419.57,-559.74 1424.94,-558.41 1430.44,-557.15 1436.06,-555.97 1441.77,-554.88 1447.57,-553.88 1453.44,-552.98 1459.36,-552.18 1465.32,-551.5 1471.29,-550.93 1477.27,-550.49 1483.24,-550.17 1489.17,-549.98 1495.05,-549.93 1500.88,-550.03 1506.62,-550.26 1512.27,-550.65 1517.81,-551.18 1523.22,-551.86 1528.49,-552.7 1533.6,-553.68 1538.55,-554.82 1543.31,-556.1 1547.87,-557.54 1552.23,-559.11 1556.36,-560.83 1560.27,-562.68 1563.93,-564.66 1567.33,-566.77 1570.48,-568.99 1573.35,-571.32 1575.94,-573.75 1578.25,-576.27 1580.27,-578.88 1581.99,-581.55 1583.4,-584.29 1584.52,-587.08 1585.32,-589.9 1585.81,-592.75 1585.99,-595.62 1585.86,-598.5 1585.42,-601.36"/>
<text text-anchor="middle" x="1472.21" y="-592.5" font-family="sans-serif" font-size="16.00">usuarioCliente</text>
</g>
<!-- disponibilidadAuto&#45;&gt;usuarioCliente -->
<g id="edge14" class="edge">
<title>disponibilidadAuto&#45;&gt;usuarioCliente</title>
<path fill="none" stroke="black" stroke-width="2" d="M1238.29,-821.84C1259.28,-812.81 1280.77,-801.81 1299.21,-788.81 1358.72,-746.86 1412.39,-681 1443.65,-638.49"/>
<text text-anchor="middle" x="1389.71" y="-779.21" font-family="sans-serif" font-size="12.00"> &#160;&#160;&#160;&#160;&#160;&#160;&#160;&#160;&#160;&#160;&#160;&#160;&#160;&#160;&#160;&#160;&#160;&#160;&#160;&#160;&#160;&#160;&#160;&#160;&#160;&#160;&#160;&#160;&#160;&#160;&#160;&#160;&#160;&#160;&#160;&#160;&#160;&#160;&#160;</text>
<polygon fill="white" stroke="transparent" points="1436.65,-629.49 1436.65,-646.49 1450.65,-646.49 1450.65,-629.49 1436.65,-629.49"/>
<text text-anchor="start" x="1438.65" y="-634.89" font-family="sans-serif" font-size="12.00">D</text>
<polygon fill="white" stroke="transparent" points="1231.29,-812.84 1231.29,-829.84 1245.29,-829.84 1245.29,-812.84 1231.29,-812.84"/>
<text text-anchor="start" x="1233.29" y="-818.24" font-family="sans-serif" font-size="12.00">U</text>
</g>
<!-- usuarioCliente&#45;&gt;GestionarClientesContext -->
<g id="edge16" class="edge">
<title>usuarioCliente&#45;&gt;GestionarClientesContext</title>
<path fill="none" stroke="black" stroke-width="2" d="M1481.95,-550.11C1488.97,-513.59 1497.21,-460.77 1497.21,-414.09 1497.21,-414.09 1497.21,-414.09 1497.21,-193.44 1497.21,-142 1370.87,-101.55 1266.24,-76.87"/>
<text text-anchor="middle" x="1572.71" y="-336.77" font-family="sans-serif" font-size="12.00"> &#160;&#160;&#160;&#160;&#160;&#160;&#160;&#160;&#160;&#160;&#160;&#160;&#160;&#160;&#160;&#160;&#160;&#160;&#160;&#160;&#160;&#160;&#160;&#160;&#160;&#160;&#160;&#160;&#160;&#160;&#160;&#160;&#160;&#160;&#160;&#160;&#160;&#160;&#160;</text>
<polygon fill="white" stroke="transparent" points="1259.24,-67.87 1259.24,-84.87 1273.24,-84.87 1273.24,-67.87 1259.24,-67.87"/>
<text text-anchor="start" x="1261.24" y="-73.27" font-family="sans-serif" font-size="12.00">D</text>
<polygon fill="white" stroke="transparent" points="1474.95,-541.11 1474.95,-558.11 1488.95,-558.11 1488.95,-541.11 1474.95,-541.11"/>
<text text-anchor="start" x="1476.95" y="-546.51" font-family="sans-serif" font-size="12.00">U</text>
</g>
</g>
</svg>
